<svg width="360" height="246" viewBox="0 0 360 246" fill="none" xmlns="http://www.w3.org/2000/svg">
<path d="M136.292 234.072C136.292 240.473 106.274 245.665 69.2427 245.665C32.2119 245.665 2.19312 240.473 2.19312 234.072C2.19312 232.471 4.06674 230.948 7.45682 229.563C17.3263 225.525 40.0511 222.655 66.7613 222.489C67.5853 222.482 68.4124 222.479 69.2427 222.479C106.274 222.479 136.292 227.671 136.292 234.072Z" fill="#243D56"/>
<path opacity="0.1" d="M66.7612 222.489C63.7568 227.387 59.6824 231.541 54.8437 234.64C50.005 237.739 44.5274 239.703 38.8218 240.383C33.1161 241.064 27.3304 240.444 21.8984 238.57C16.4664 236.696 11.5292 233.617 7.45679 229.563C17.3262 225.525 40.051 222.655 66.7612 222.489Z" fill="black"/>
<path d="M35.0914 234.385C54.4718 234.385 70.1828 217.552 70.1828 196.787C70.1828 176.022 54.4718 159.189 35.0914 159.189C15.7109 159.189 0 176.022 0 196.787C0 217.552 15.7109 234.385 35.0914 234.385Z" fill="#243D56"/>
<path d="M78.1494 26.1107C83.1248 45.2784 99.1757 57.6672 114.036 53.8099L78.1494 26.1107Z" fill="#162138"/>
<path d="M114.036 53.8099C109.005 34.4269 118.352 15.2592 134.936 10.9546L114.036 53.8099Z" fill="#FE6728"/>
<path d="M88.3413 25.3198C93.0674 43.527 104.56 56.2697 114.036 53.8099L88.3413 25.3198Z" fill="#FE6728"/>
<path d="M114.036 53.8099C107.607 29.0428 117.915 4.97542 137.083 0L114.036 53.8099Z" fill="#162138"/>
<path d="M108.444 55.5225C108.444 55.5225 112.226 54.4154 113.163 53.2989C114.099 52.1824 118.562 49.9813 119.187 51.2195C119.813 52.4578 126.611 56.2588 122.316 57.4109C118.02 58.563 112.14 59.3366 110.811 58.9357C109.483 58.5348 108.444 55.5225 108.444 55.5225Z" fill="#A8A8A8"/>
<path opacity="0.2" d="M122.274 56.9341C117.978 58.0862 112.098 58.8599 110.77 58.459C109.758 58.1537 108.915 56.335 108.57 55.4845C108.49 55.5089 108.444 55.5225 108.444 55.5225C108.444 55.5225 109.483 58.5348 110.811 58.9357C112.14 59.3366 118.02 58.563 122.316 57.4109C123.556 57.0783 123.87 56.5248 123.677 55.8762C123.607 56.3166 123.197 56.6866 122.274 56.9341Z" fill="black"/>
<path d="M360 39.5026H107.467V185.821H360V39.5026Z" fill="#F2F2F2"/>
<path opacity="0.3" d="M251.906 83.9152H113.42V156.448H251.906V83.9152Z" fill="#FE6728"/>
<path d="M318.104 80.7532H262.559V83.8259H318.104V80.7532Z" fill="#162138"/>
<path d="M343.394 86.4258H262.559V89.4985H343.394V86.4258Z" fill="#162138"/>
<path d="M318.104 100.135H262.559V103.207H318.104V100.135Z" fill="#162138"/>
<path d="M318.104 122.825H262.559V125.898H318.104V122.825Z" fill="#162138"/>
<path d="M343.394 105.807H262.559V108.88H343.394V105.807Z" fill="#162138"/>
<path d="M343.394 111.48H262.559V114.553H343.394V111.48Z" fill="#162138"/>
<path d="M343.394 117.153H262.559V120.225H343.394V117.153Z" fill="#162138"/>
<path d="M291.631 136.534H262.559V144.571H291.631V136.534Z" fill="#FE6728"/>
<path d="M98.5339 127.806C98.5339 127.806 103.753 113.019 107.522 117.658C111.291 122.297 101.723 130.125 101.723 130.125L98.5339 127.806Z" fill="#A0616A"/>
<path d="M73.8891 113.309L77.0287 114.472C77.0287 114.472 78.5281 121.137 77.9483 122.297C77.3684 123.457 77.0785 122.587 77.9483 124.906C78.8181 127.226 81.4275 133.315 81.7175 134.184C82.0074 135.054 98.5338 128.676 98.5338 125.486C98.5338 125.486 102.013 129.545 103.753 130.415C103.753 130.415 84.6168 144.332 82.0074 146.072C79.398 147.811 77.9483 146.942 75.6288 144.912C73.3093 142.883 63.4514 126.066 63.4514 126.066L73.8891 113.309Z" fill="#575A89"/>
<path d="M82.2974 216.237C82.2974 216.237 82.0075 219.426 81.4276 219.716C80.8477 220.006 76.4987 227.254 81.4276 228.704C86.3565 230.154 89.2559 229.574 90.4156 230.154C91.5754 230.734 111.871 231.893 112.161 228.704C112.451 225.515 102.303 224.935 102.303 224.935C102.303 224.935 93.0251 218.846 91.5754 215.657C90.1257 212.467 82.2974 216.237 82.2974 216.237Z" fill="#162138"/>
<path d="M23.4402 222.035C23.4402 222.035 16.4817 233.923 18.2213 235.372C19.961 236.822 36.9029 242.105 39.3867 242.331C42.576 242.621 44.8955 240.011 42.2861 238.562C39.6767 237.112 34.1679 231.023 34.1679 228.994V223.775L23.4402 222.035Z" fill="#162138"/>
<path d="M16.7717 144.332C16.7717 144.332 10.683 151.871 20.251 164.048L36.1975 184.344C36.1975 184.344 26.3396 200 26.0497 208.118C25.7598 216.237 23.7302 214.497 23.1503 217.976C22.5705 221.455 19.961 219.716 21.9906 222.325C24.0201 224.935 31.5585 227.254 33.878 225.225C36.1975 223.195 36.1975 220.586 36.1975 219.426C36.1975 218.266 40.2566 211.598 40.5466 209.568C40.8365 207.539 51.5642 191.012 51.5642 191.012C51.5642 191.012 55.0434 181.154 50.9843 175.645C46.9252 170.137 44.2429 162.324 44.2429 162.324C44.2429 162.324 56.2032 176.805 64.6113 180.284C64.6113 180.284 67.8006 180.864 67.2208 182.314C66.6409 183.764 67.2208 184.633 68.0906 186.083C68.9604 187.533 75.0491 204.349 77.0786 208.698C79.1082 213.047 78.2384 215.657 80.5579 217.106C82.8774 218.556 93.3151 217.396 93.3151 215.947C93.3151 214.497 91.8654 210.728 90.9956 208.698C90.1258 206.669 83.1673 183.184 83.7472 179.125C84.3271 175.066 83.4572 169.557 79.1082 167.237C74.7591 164.918 52.7239 146.072 51.5642 146.072C50.4044 146.072 16.7717 144.332 16.7717 144.332Z" fill="#162138"/>
<path d="M75.0489 98.8121C81.7743 98.8121 87.2263 93.3601 87.2263 86.6347C87.2263 79.9094 81.7743 74.4574 75.0489 74.4574C68.3236 74.4574 62.8716 79.9094 62.8716 86.6347C62.8716 93.3601 68.3236 98.8121 75.0489 98.8121Z" fill="#A0616A"/>
<path d="M65.1912 87.7946C65.1912 87.7946 61.422 94.4631 56.783 95.3329C52.144 96.2028 68.9604 109.54 68.9604 109.54C68.9604 109.54 73.0195 96.7826 76.4987 96.2027C79.978 95.6229 65.1912 87.7946 65.1912 87.7946Z" fill="#A0616A"/>
<path d="M77.0787 115.049C77.0787 118.818 65.7711 129.545 65.7711 129.545L55.0435 138.534C55.0435 138.534 54.7535 141.723 53.5938 142.013C52.434 142.303 50.9844 142.303 52.1441 144.042C53.3039 145.782 56.2032 149.551 53.5938 150.131C52.8071 150.251 52.0143 150.326 51.2192 150.357C50.5233 150.398 49.7058 150.435 48.7866 150.47C46.6411 150.546 43.9563 150.595 41.0482 150.575C40.2219 150.572 39.381 150.562 38.5258 150.546C27.5632 150.328 14.864 149.067 15.902 144.912C17.6416 137.954 16.4818 135.634 20.251 131.865C24.0202 128.096 30.1089 115.049 30.1089 115.049C30.1089 115.049 42.2862 94.463 52.434 94.463L54.5419 93.9093C55.5213 93.6512 56.5571 93.7078 57.5025 94.071C58.448 94.4342 59.2552 95.0856 59.81 95.933C61.8454 99.0325 65.055 103.689 66.9309 105.191C69.8303 107.51 70.2826 105.846 70.2826 105.846C70.2826 105.846 77.0787 111.279 77.0787 115.049Z" fill="#575A89"/>
<path d="M51.2742 159.119C51.2742 159.119 59.6823 172.166 54.4635 174.486C49.2446 176.805 46.3452 160.859 46.3452 160.859L51.2742 159.119Z" fill="#A0616A"/>
<path d="M67.0882 85.2593C67.5556 85.2003 67.7034 84.6106 67.7821 84.1462C68.2033 81.659 70.0568 79.3005 72.5472 78.899C73.4991 78.7724 74.4671 78.8504 75.3864 79.1278C76.7034 79.4892 77.9397 80.0977 79.0293 80.9209C79.6045 81.3559 80.1579 81.8609 80.8498 82.0641C81.3068 82.1983 83.2469 83.0608 83.7002 83.2067C84.6969 83.5276 85.5217 84.5708 86.5482 84.3643C87.5302 84.1667 87.9032 82.9808 88.061 81.9916C88.4206 79.738 87.1307 76.3753 85.8482 74.4877C84.8749 73.0552 83.228 72.2308 81.5813 71.6945C79.6521 71.1089 77.67 70.715 75.6635 70.5186C72.9549 70.1987 70.1496 70.029 67.5538 70.8662C64.958 71.7035 62.5945 73.7515 62.1099 76.4356C62.0089 76.9947 61.99 77.5674 61.8663 78.1219C61.5646 79.4746 60.6695 80.6117 60.1474 81.8956C59.7707 82.8385 59.5959 83.8499 59.634 84.8645C59.6722 85.8792 59.9226 86.8746 60.3691 87.7865C61.0921 89.2404 62.3493 90.6376 62.078 92.2385L64.3154 90.4743C64.6387 90.2906 64.8892 90.0015 65.0252 89.6554C65.1611 89.3093 65.1742 88.927 65.0622 88.5724L64.737 85.7708C64.6774 85.2578 64.6256 84.7043 64.8821 84.2561C65.8765 82.519 66.309 85.3576 67.0882 85.2593Z" fill="#162138"/>
<path opacity="0.1" d="M46.0553 139.113L48.7864 150.47C46.032 150.569 42.3876 150.621 38.5256 150.546C37.5514 147.623 36.6207 144.576 35.9075 141.723C33.298 131.285 37.6471 115.338 39.9666 107.8C42.2861 100.262 48.0848 98.2322 48.0848 98.2322C48.0848 98.2322 50.9842 99.102 54.7534 101.711C58.5226 104.321 46.0553 139.113 46.0553 139.113Z" fill="black"/>
<path opacity="0.1" d="M48.3748 138.534L51.2191 150.357C50.5233 150.398 49.7057 150.435 48.7865 150.47C46.641 150.546 43.9562 150.595 41.0481 150.575C40.0015 147.469 38.9896 144.193 38.227 141.143C35.6176 130.705 39.9667 114.759 42.2862 107.22C44.6057 99.682 49.6795 107.945 49.6795 107.945C49.6795 107.945 47.65 103.016 51.4192 105.626C55.1883 108.235 48.3748 138.534 48.3748 138.534Z" fill="black"/>
<path d="M49.2447 97.6523C49.2447 97.6523 43.446 99.6819 41.1265 107.22C38.807 114.759 34.4579 130.705 37.0674 141.143C39.6768 151.581 45.1856 164.628 45.1856 164.628C45.1856 164.628 50.6944 160.569 52.724 161.439L47.2152 138.533C47.2152 138.533 59.6825 103.741 55.9133 101.132C52.1441 98.5222 49.2447 97.6523 49.2447 97.6523Z" fill="#575A89"/>
<path d="M245.953 76.3956H107.467V148.928H245.953V76.3956Z" fill="#162138"/>
<path d="M179.287 129.781C187.942 129.781 194.958 122.752 194.958 114.082C194.958 105.411 187.942 98.382 179.287 98.382C170.632 98.382 163.615 105.411 163.615 114.082C163.615 122.752 170.632 129.781 179.287 129.781Z" fill="white"/>
<path d="M179.287 95.7064C175.582 95.7064 171.961 96.8049 168.881 98.8628C165.801 100.921 163.401 103.846 161.983 107.268C160.566 110.69 160.195 114.456 160.917 118.089C161.64 121.722 163.424 125.06 166.043 127.679C168.663 130.298 172 132.082 175.633 132.805C179.266 133.527 183.032 133.156 186.454 131.739C189.876 130.321 192.801 127.921 194.859 124.841C196.917 121.761 198.016 118.14 198.016 114.435C198.001 109.473 196.023 104.717 192.514 101.208C189.005 97.6988 184.249 95.7209 179.287 95.7064ZM175.442 124.421L165.843 114.823L168.535 112.13L175.451 119.046L190.047 104.45L192.739 107.142L175.442 124.421Z" fill="#FE6728"/>
</svg>
