<svg width="302" height="209" viewBox="0 0 302 209" fill="none" xmlns="http://www.w3.org/2000/svg">
<g clip-path="url(#clip0)">
<path d="M215.929 142.91C215.929 161.824 204.677 168.428 190.796 168.428C176.916 168.428 165.663 161.824 165.663 142.91C165.663 123.996 190.796 99.9342 190.796 99.9342C190.796 99.9342 215.929 123.996 215.929 142.91Z" fill="#FE6728"/>
<path d="M190.138 149.706L200.85 130.122L190.178 147.222L190.294 140.105L197.677 125.937L190.325 138.221L190.533 125.42L198.439 114.14L190.565 123.407L190.695 99.9341L189.913 129.677L181.908 117.432L189.817 132.187L189.068 146.484L189.045 146.104L179.779 133.166L189.017 147.445L188.924 149.233L188.907 149.26L188.915 149.407L187.014 168.485H189.553L189.858 166.944L199.073 152.7L189.881 165.535L190.138 149.706Z" fill="#243D56"/>
<path d="M302 82.0948C302 118.226 280.505 130.841 253.99 130.841C227.474 130.841 205.979 118.226 205.979 82.0948C205.979 45.964 253.99 0 253.99 0C253.99 0 302 45.964 302 82.0948Z" fill="#F2F2F2"/>
<path d="M252.241 125.314L252.732 95.076L273.196 57.6671L252.809 90.3324L253.03 76.736L267.134 49.6712L253.089 73.138V73.1383L253.487 48.6846L268.588 27.1375L253.549 44.8393L253.797 0L252.236 59.3592L252.365 56.9104L237.01 33.4254L252.118 61.611L250.688 88.9214L250.645 88.1966L232.944 63.4822L250.592 90.7574L250.413 94.1729L250.381 94.2243L250.395 94.5046L246.766 163.793H251.615L252.197 128.005L269.801 100.796L252.241 125.314Z" fill="#243D56"/>
<path d="M300.029 157.744C300.029 168.528 230.022 209 148.183 209C66.3436 209 0 188.054 0 177.27C0 166.486 64.7152 179.304 146.554 179.304C228.393 179.304 300.029 146.96 300.029 157.744Z" fill="#243D56"/>
<path opacity="0.1" d="M300.029 157.744C300.029 168.528 230.022 209 148.183 209C66.3436 209 0 188.054 0 177.27C0 166.486 64.7152 179.304 146.554 179.304C228.393 179.304 300.029 146.96 300.029 157.744Z" fill="black"/>
<path d="M300.029 157.744C300.029 168.528 230.022 196.796 148.183 196.796C66.3436 196.796 0 188.054 0 177.27C0 166.486 64.7152 167.1 146.554 167.1C228.393 167.1 300.029 146.96 300.029 157.744Z" fill="#243D56"/>
<path opacity="0.1" d="M149.841 184.182C184.594 184.182 212.767 182.005 212.767 179.319C212.767 176.633 184.594 174.455 149.841 174.455C115.088 174.455 86.9146 176.633 86.9146 179.319C86.9146 182.005 115.088 184.182 149.841 184.182Z" fill="black"/>
<path d="M99.9905 81.8578C99.9905 81.8578 118.413 82.1987 115.001 85.4372C111.59 88.6758 98.7965 85.4372 98.7965 85.4372L99.9905 81.8578Z" fill="#A0616A"/>
<path d="M61.6076 42.5215C61.6076 42.5215 69.0455 41.1943 71.6316 47.1943C74.2178 53.1943 79.5291 70.306 79.5291 70.306C79.5291 70.306 93.7429 79.7076 96.3283 79.3987C98.9136 79.0898 103.333 79.7201 102.522 82.5385C101.712 85.3569 102.072 88.5528 100.205 88.9444C98.3389 89.3361 95.3705 85.5972 93.0988 87.3981C90.8271 89.199 70.5812 82.6212 69.2814 81.2583C67.9817 79.8954 57.18 50.383 57.18 50.383C57.18 50.383 57.612 42.4254 61.6076 42.5215Z" fill="#FE6728"/>
<path d="M77.5599 169.213L78.4127 176.372L71.2487 178.247L67.1548 176.372V170.065L77.5599 169.213Z" fill="#A0616A"/>
<path d="M58.2848 173.815L59.1376 180.974L51.9735 182.849L47.8797 180.974V174.668L58.2848 173.815Z" fill="#A0616A"/>
<path d="M78.2422 90.9769L81.4831 102.738L86.2592 126.601C86.2592 126.601 87.6238 132.396 84.8946 139.385C82.1654 146.373 77.2187 169.213 78.2422 170.577C79.2656 171.94 66.643 172.963 66.8136 171.599C66.9842 170.236 68.6899 151.486 68.6899 151.486C68.6899 151.486 71.078 134.953 72.272 132.907C73.4661 130.862 66.8136 125.749 66.8136 125.749C66.8136 125.749 65.1079 145.35 62.5492 147.055C59.9906 148.759 60.3318 175.179 59.1377 175.52C57.9437 175.861 49.2444 177.224 48.2209 175.52C47.1975 173.815 48.2209 145.35 48.2209 145.35C48.2209 145.35 54.0205 123.703 52.8264 120.635C51.6324 117.567 52.3147 104.442 52.3147 104.442C52.3147 104.442 47.8798 94.3859 50.2678 89.1019L78.2422 90.9769Z" fill="#2F2E41"/>
<path d="M77.7304 25.5242C77.7304 25.5242 70.5663 34.3876 70.9074 38.308C71.2486 42.2283 59.6494 31.1491 59.6494 31.1491C59.6494 31.1491 68.0076 19.8994 68.0076 17.5131C68.0076 15.1268 77.7304 25.5242 77.7304 25.5242Z" fill="#A0616A"/>
<path d="M77.6451 28.848C83.8627 28.848 88.9031 23.8113 88.9031 17.5983C88.9031 11.3853 83.8627 6.34863 77.6451 6.34863C71.4275 6.34863 66.3871 11.3853 66.3871 17.5983C66.3871 23.8113 71.4275 28.848 77.6451 28.848Z" fill="#A0616A"/>
<path d="M49.2733 84.6003C48.7633 86.4991 48.1305 88.6519 48.2209 90.4655C48.2789 91.6399 51.3987 92.4103 55.7126 92.9148C59.7126 93.3836 64.7394 93.6222 69.3091 93.7449C74.1074 93.8745 78.3974 93.8745 80.4596 93.8745C86.6003 93.8745 81.6537 89.9541 79.2656 88.0792C76.8776 86.2043 77.3893 59.6141 77.5599 56.2051C77.7304 52.7961 76.0247 42.9101 76.0247 41.0351C76.0247 39.1602 72.011 34.2666 72.011 34.2666C72.011 34.2666 71.078 36.9443 67.3253 33.3649C63.5727 29.7855 58.626 28.7628 58.626 28.7628C54.8733 30.1264 48.5621 45.1259 48.2209 47.6827C48.0827 48.7207 48.197 54.037 48.429 60.1067C48.765 68.9786 49.3518 79.4664 49.7561 80.5794C50.0751 81.4572 49.722 82.9299 49.2733 84.6003Z" fill="#FE6728"/>
<path d="M67.4959 94.5563L68.6899 98.8176L64.0843 103.59L62.5492 96.9424L67.4959 94.5563Z" fill="#A0616A"/>
<path d="M69.0311 174.497C69.0311 174.497 72.6132 178.588 75.3424 175.861C78.0716 173.134 77.901 171.429 78.4127 171.429C78.9245 171.429 86.6004 178.247 86.6004 178.247C86.6004 178.247 99.7347 181.315 92.5705 183.531C85.4063 185.747 65.1079 184.213 65.1079 183.531C65.1079 182.849 64.5961 173.815 66.4725 173.815L69.0311 174.497Z" fill="#2F2E41"/>
<path d="M49.756 179.099C49.756 179.099 53.3381 183.19 56.0673 180.463C58.7965 177.736 58.626 176.031 59.1377 176.031C59.6494 176.031 67.3253 182.849 67.3253 182.849C67.3253 182.849 80.4596 185.917 73.2954 188.133C66.1313 190.349 45.8328 188.815 45.8328 188.133C45.8328 187.451 45.3211 178.418 47.1974 178.418L49.756 179.099Z" fill="#2F2E41"/>
<path d="M65.0056 26.5783C64.6419 26.8131 64.1684 27.051 63.8043 26.817C62.4504 23.443 61.4384 19.9418 60.7836 16.3661C60.5537 15.1101 60.3941 13.7138 61.0923 12.6445C61.3677 12.2227 61.7642 11.8779 61.9659 11.4164C62.2714 10.7175 62.0703 9.90856 62.1718 9.1527C62.3844 7.56918 63.8824 6.46471 65.3888 5.92905C66.8952 5.3934 68.5312 5.22724 69.9671 4.52436C71.3305 3.85696 72.4225 2.7501 73.6867 1.91016C74.951 1.07022 76.5704 0.495923 77.9783 1.0635C79.2238 1.5656 79.9997 2.83422 81.1769 3.48016C81.9758 3.9185 82.9029 4.04047 83.7947 4.22863C86.2731 4.75409 88.6001 5.83439 90.6005 7.38824C91.0872 7.73517 91.5068 8.16747 91.8391 8.66414C93.3498 11.1496 90.6449 14.5287 91.8383 17.1809L89.2583 15.1466C88.5694 14.5444 87.7924 14.051 86.9542 13.6834C86.0996 13.3599 85.0876 13.3208 84.3113 13.8027C83.2219 14.4788 82.9265 15.8915 82.5459 17.1153C82.1653 18.3391 81.3238 19.6961 80.0418 19.6648C78.2982 19.6221 77.6885 17.1907 76.1238 16.4209C75.1037 15.919 73.8198 16.2495 72.9502 16.9814C72.0807 17.7133 71.5589 18.7752 71.1763 19.8449C70.9371 20.5134 70.7127 21.267 70.288 21.8464C69.8195 22.4855 69.2203 22.537 68.72 23.0142C67.4175 24.2566 66.6167 25.5382 65.0056 26.5783Z" fill="#2F2E41"/>
<path opacity="0.1" d="M49.2733 84.6003C51.3936 87.6735 53.7833 90.8439 55.7125 92.9149C59.7125 93.3836 64.7394 93.6222 69.3091 93.7449C68.4927 92.6389 67.4719 91.6992 66.3019 90.9768C64.0844 89.6132 58.7966 73.4205 58.7966 73.4205C58.7966 73.4205 65.2784 56.7165 66.9842 50.4098C68.6899 44.1032 62.0375 40.5238 62.0375 40.5238C58.9671 37.967 53.6793 43.9327 53.6793 43.9327C53.6793 43.9327 50.9808 52.0666 48.429 60.1067C48.765 68.9786 49.3518 79.4664 49.7561 80.5794C50.075 81.4572 49.722 82.9299 49.2733 84.6003Z" fill="black"/>
<path d="M61.5258 39.1602C61.5258 39.1602 68.1782 42.7396 66.4724 49.0462C64.7667 55.3529 58.2848 72.0569 58.2848 72.0569C58.2848 72.0569 63.5727 88.2497 65.7901 89.6133C68.0076 90.9769 71.078 94.2154 68.6899 95.9199C66.3019 97.6244 64.5961 100.352 62.8904 99.4994C61.1846 98.6471 61.1846 93.8745 58.2848 93.8745C55.3851 93.8745 43.6154 76.1477 43.4448 74.2728C43.2742 72.3979 53.1676 42.5692 53.1676 42.5692C53.1676 42.5692 58.4554 36.6034 61.5258 39.1602Z" fill="#FE6728"/>
<path d="M199.855 85.7491L197.936 83.8315C196.817 82.7131 195.299 82.0847 193.716 82.0847C192.133 82.0847 190.615 82.7131 189.496 83.8315L152.274 121.025L115.053 83.8315C113.934 82.7131 112.416 82.0847 110.833 82.0847C109.25 82.0847 107.732 82.7131 106.612 83.8315L104.694 85.7491C104.139 86.3029 103.7 86.9603 103.4 87.6839C103.1 88.4075 102.945 89.183 102.945 89.9662C102.945 90.7494 103.1 91.525 103.4 92.2486C103.7 92.9722 104.139 93.6296 104.694 94.1834L141.915 131.377L104.694 168.571C104.139 169.125 103.7 169.782 103.4 170.506C103.1 171.23 102.945 172.005 102.945 172.788C102.945 173.572 103.1 174.347 103.4 175.071C103.7 175.794 104.139 176.452 104.694 177.005L106.612 178.923C107.732 180.041 109.25 180.67 110.833 180.67C112.416 180.67 113.934 180.041 115.053 178.923L152.274 141.729L189.496 178.923C190.615 180.041 192.133 180.67 193.716 180.67C195.299 180.67 196.817 180.041 197.936 178.923L199.855 177.005C200.974 175.887 201.603 174.37 201.603 172.788C201.603 171.207 200.974 169.69 199.855 168.571L162.634 131.377L199.855 94.1834C200.974 93.065 201.603 91.548 201.603 89.9662C201.603 88.3845 200.974 86.8675 199.855 85.7491Z" fill="#FF6584"/>
<path opacity="0.1" d="M103.365 170.593L139.481 134.504L139.134 134.156L104.694 168.571C104.117 169.147 103.664 169.835 103.365 170.593Z" fill="black"/>
<path opacity="0.1" d="M104.179 86.958C105.298 85.8396 106.816 85.2112 108.399 85.2112C109.982 85.2112 111.5 85.8396 112.619 86.958L149.841 124.152L187.062 86.958C188.181 85.8396 189.699 85.2112 191.282 85.2112C192.865 85.2112 194.383 85.8396 195.503 86.958L197.421 88.8756C198.245 89.6984 198.809 90.7438 199.045 91.8832C199.281 93.0225 199.179 94.206 198.75 95.2878L199.855 94.1833C200.409 93.6295 200.849 92.972 201.149 92.2484C201.449 91.5248 201.603 90.7493 201.603 89.9661C201.603 89.1829 201.449 88.4074 201.149 87.6838C200.849 86.9602 200.409 86.3028 199.855 85.7489L197.936 83.8314C196.817 82.7129 195.299 82.0846 193.716 82.0846C192.133 82.0846 190.615 82.7129 189.496 83.8314L152.274 121.025L115.053 83.8314C113.934 82.7129 112.416 82.0846 110.833 82.0846C109.25 82.0846 107.732 82.7129 106.612 83.8314L104.694 85.7489C104.117 86.3248 103.664 87.0131 103.365 87.7711L104.179 86.958Z" fill="black"/>
<path opacity="0.1" d="M162.982 131.725L160.2 134.504L197.422 171.698C198.245 172.52 198.809 173.566 199.045 174.705C199.281 175.845 199.179 177.028 198.75 178.11L199.855 177.005C200.409 176.452 200.849 175.794 201.149 175.07C201.449 174.347 201.603 173.571 201.603 172.788C201.603 172.005 201.449 171.229 201.149 170.506C200.849 169.782 200.409 169.125 199.855 168.571L162.982 131.725Z" fill="black"/>
<path d="M43.3406 156.524C43.3406 172.233 33.995 177.718 22.4667 177.718C10.9383 177.718 1.59268 172.233 1.59268 156.524C1.59268 140.815 22.4667 120.831 22.4667 120.831C22.4667 120.831 43.3406 140.815 43.3406 156.524Z" fill="#FE6728"/>
<path d="M21.92 162.168L30.8172 145.903L21.9536 160.106L22.0498 154.194L28.1815 142.427L22.0752 152.63L22.248 141.998L28.814 132.629L22.2751 140.326L22.3831 120.831L21.7335 145.533L15.0845 135.363L21.653 147.618L21.0311 159.492L21.0127 159.177L13.3168 148.431L20.9892 160.29L20.9115 161.775L20.8975 161.798L20.9039 161.919L19.3257 177.765H21.4343L21.6874 176.485L29.3411 164.655L21.7064 175.315L21.92 162.168Z" fill="#243D56"/>
</g>
<defs>
<clipPath id="clip0">
<rect width="302" height="209" fill="white"/>
</clipPath>
</defs>
</svg>
