<svg width="300" height="242" viewBox="0 0 300 242" fill="none" xmlns="http://www.w3.org/2000/svg">
<path d="M22.3151 208.868L20.9259 219.068L30.6502 219.995L29.261 207.477L22.3151 208.868Z" fill="#FFB9B9"/>
<path d="M68.1586 68.8499C68.1586 68.8499 67.2325 81.3681 67.2325 81.8317C67.2325 82.2954 73.7154 114.286 73.7154 114.286C73.7154 114.286 82.9767 131.904 73.7154 131.441C64.4541 130.977 67.2325 114.75 67.2325 114.75L57.5082 87.859L61.6758 68.85L68.1586 68.8499Z" fill="#FFB9B9"/>
<path d="M52.8773 208.868L54.2665 219.068L44.5422 219.995L45.9314 207.477L52.8773 208.868Z" fill="#FFB9B9"/>
<path d="M63.528 113.359L65.8433 116.604C65.8433 116.604 67.2325 130.513 65.8433 135.15C64.4541 139.786 61.6757 161.113 61.6757 162.504C61.6757 163.895 61.2127 164.822 61.6757 165.286C62.1388 165.75 63.528 165.75 62.6019 166.677C61.6757 167.604 61.6757 170.386 61.6757 170.386V172.704L55.6559 207.013C55.6559 207.013 59.3604 211.186 56.582 211.186C53.8036 211.186 43.6162 211.186 44.0793 206.55L45.0054 206.086C45.0054 206.086 46.3946 175.486 45.9315 174.095C45.4685 172.704 45.9315 169.922 45.9315 169.922C45.9315 169.922 46.8577 168.532 45.9315 168.068C45.0054 167.604 45.0054 163.895 45.0054 163.895L40.8378 135.613C40.8378 135.613 37.1333 154.623 34.818 156.477C32.5027 158.332 32.9657 162.968 32.9657 162.968L31.1135 203.768C31.1135 203.768 32.9657 208.404 31.1135 209.332C29.2612 210.259 21.3891 213.504 20.926 208.868C20.463 204.232 18.1476 163.895 18.1476 162.041C18.1476 160.186 18.6107 159.259 18.1476 157.868C17.6846 156.477 18.6107 156.477 18.1476 156.477C17.6846 156.477 19.0738 155.086 19.0738 154.159V131.441C19.0738 131.441 18.6107 126.804 18.1476 125.877C17.6846 124.95 18.6107 124.023 18.1476 122.632C17.6846 121.241 19.0738 116.604 19.0738 116.604L39.9117 111.041L63.528 113.359Z" fill="#243D56" fill-opacity="0.9"/>
<path d="M47.3207 217.213C47.3207 217.213 45.0054 214.895 48.2468 214.895C50.3278 214.938 52.3775 215.411 54.2667 216.286L56.582 224.632C56.582 224.632 66.0748 232.282 55.4243 231.354C44.7738 230.427 46.3946 231.122 46.3946 231.122C46.3946 231.122 43.1531 230.195 42.6901 229.268C42.227 228.341 43.6162 214.895 43.6162 214.895C43.6162 214.895 45.0054 218.604 47.3207 217.213Z" fill="#162138"/>
<path d="M27.409 217.213C27.409 217.213 29.7243 214.895 26.4828 214.895C24.4018 214.938 22.3522 215.411 20.463 216.286L18.1477 224.632C18.1477 224.632 8.65483 232.282 19.3053 231.354C29.9558 230.427 29.7243 231.122 29.7243 231.122C29.7243 231.122 32.9657 230.195 33.4288 229.268C33.8919 228.341 31.1135 214.895 31.1135 214.895C31.1135 214.895 29.7243 218.604 27.409 217.213Z" fill="#162138"/>
<path d="M57.5081 32.2227C50.8588 32.2227 45.4684 26.8257 45.4684 20.1682C45.4684 13.5106 50.8588 8.11362 57.5081 8.11362C64.1574 8.11362 69.5478 13.5106 69.5478 20.1682C69.5478 26.8257 64.1574 32.2227 57.5081 32.2227Z" fill="#FFB9B9"/>
<path d="M61.6757 28.9772C61.6757 28.9772 59.8235 38.2499 59.8235 39.6408C59.8235 41.0317 51.9514 45.2045 51.9514 45.2045L43.1531 34.0772C43.1531 34.0772 48.7099 26.1954 48.7099 24.3409L61.6757 28.9772Z" fill="#FFB9B9"/>
<path d="M54.7298 41.0318C54.7298 41.0318 58.7657 39.9562 59.9892 38.1758C59.9892 38.1758 72.7893 50.7681 72.7893 53.0863L62.6018 71.1681C62.6018 71.1681 62.6019 77.659 61.6757 78.1226C60.7496 78.5863 61.6757 78.1226 61.6757 79.9772C61.6757 81.8317 64.4541 93.8863 63.528 95.7408C62.6019 97.5954 61.6757 96.2045 62.6018 98.9863C63.528 101.768 65.8433 116.604 65.8433 116.604C65.8433 116.604 57.5081 113.823 45.4684 118.459C33.4288 123.095 19.0738 116.604 19.0738 116.604C19.0738 116.604 22.7783 108.259 21.8522 105.477C20.926 102.695 24.1675 97.5954 24.1675 97.5954L26.4828 54.9409C26.4828 54.9409 23.2414 35.9318 25.5567 35.0045L30.1873 33.15L45.0165 31.3251C45.0165 31.3251 48.7099 40.5681 54.7298 41.0318Z" fill="#D3D8DD"/>
<path d="M68.1586 49.8408L72.7892 53.0863C72.7892 53.0863 75.1045 60.0408 72.7892 63.2863C70.4739 66.5317 69.5478 71.1681 69.5478 71.1681L60.2865 70.2408L68.1586 49.8408Z" fill="#D3D8DD"/>
<path d="M66.7004 7.42858L68.7888 6.59146C68.7888 6.59146 64.4221 1.77804 58.3466 2.19661L60.0554 0.313073C60.0554 0.313073 55.8785 -1.36115 52.0814 3.0337C50.0853 5.34398 47.7758 8.05959 46.3361 11.1187H44.0996L45.033 13.1766L41.7659 15.2345L45.1193 14.8649C44.8016 16.6415 44.9103 18.4683 45.4364 20.1946L45.3465 21.8212C45.3465 21.8212 49.2336 15.7997 49.2336 14.9626V17.0554C49.2336 17.0554 51.322 15.1719 51.322 13.9162L52.4611 15.3812L53.0307 13.0791L60.0554 15.3812L58.9163 13.4977L63.283 14.1255L61.5742 11.8234C61.5742 11.8234 66.5105 14.5441 66.7004 16.8462C66.8902 19.1482 69.3583 22.0781 69.3583 22.0781L70.4974 19.9853C70.4974 19.9853 72.2062 10.5678 66.7004 7.42858Z" fill="#243D56"/>
<path d="M63.9078 100.896H247.921V230.318H63.9078V100.896Z" fill="#F2F2F2"/>
<path d="M186.227 149.563H232.431V230.318H186.227V149.563Z" fill="#D3D8DD"/>
<path d="M211.438 155.121H223.884V166.738H211.438V155.121Z" fill="#F2F2F2"/>
<path d="M194.773 155.121H207.219V166.738H194.773V155.121Z" fill="#F2F2F2"/>
<path d="M211.438 170.962H223.884V183.001H211.438V170.962Z" fill="#F2F2F2"/>
<path d="M194.773 170.962H207.219V183.001H194.773V170.962Z" fill="#F2F2F2"/>
<path d="M192.103 199.032C190.48 199.032 189.165 197.715 189.165 196.091C189.165 194.466 190.48 193.149 192.103 193.149C193.725 193.149 195.04 194.466 195.04 196.091C195.04 197.715 193.725 199.032 192.103 199.032Z" fill="#FE6728"/>
<path d="M79.3981 142.611H170.737V219.355H79.3981V142.611Z" fill="#D3D8DD"/>
<path d="M44.6786 125.261H267.15L252.317 94.2106L248.997 87.2582L244.654 78.1665L241.335 71.2141L237.486 63.1601H62.2065L59.9337 71.2141L57.9709 78.1665L55.4041 87.2582L53.4413 94.2106L44.6786 125.261Z" fill="#243D56"/>
<path d="M164.327 174.431H167.532V194.219H164.327V174.431Z" fill="#FE6728"/>
<path d="M164.327 177.373H167.532V179.779H164.327V177.373Z" fill="#F2F2F2"/>
<path d="M164.327 188.871H167.532V191.278H164.327V188.871Z" fill="#F2F2F2"/>
<path d="M154.98 174.431H162.725V194.219H154.98V174.431Z" fill="#FE6728"/>
<path d="M154.98 177.373H162.725V179.779H154.98V177.373Z" fill="#F2F2F2"/>
<path d="M154.98 188.871H162.725V191.278H154.98V188.871Z" fill="#F2F2F2"/>
<path d="M149.905 174.431H153.11V194.219H149.905V174.431Z" fill="#FE6728"/>
<path d="M149.905 177.373H153.11V179.779H149.905V177.373Z" fill="#F2F2F2"/>
<path d="M149.905 188.871H153.11V191.278H149.905V188.871Z" fill="#F2F2F2"/>
<path d="M145.098 174.431H148.303V194.219H145.098V174.431Z" fill="#FE6728"/>
<path d="M145.098 177.373H148.303V179.779H145.098V177.373Z" fill="#F2F2F2"/>
<path d="M145.098 188.871H148.303V191.278H145.098V188.871Z" fill="#F2F2F2"/>
<path d="M142.01 174.501L145.008 175.633L138.037 194.149L135.039 193.017L142.01 174.501Z" fill="#FE6728"/>
<path d="M140.973 177.254L143.972 178.386L143.124 180.638L140.125 179.506L140.973 177.254Z" fill="#F2F2F2"/>
<path d="M136.923 188.013L139.922 189.145L139.074 191.397L136.075 190.265L136.923 188.013Z" fill="#F2F2F2"/>
<path d="M82.3359 174.431H90.081V194.219H82.3359V174.431Z" fill="#FE6728"/>
<path d="M82.3359 177.373H90.081V179.779H82.3359V177.373Z" fill="#F2F2F2"/>
<path d="M82.3359 188.871H90.081V191.278H82.3359V188.871Z" fill="#F2F2F2"/>
<path d="M91.9504 174.431H95.1553V194.219H91.9504V174.431Z" fill="#FE6728"/>
<path d="M91.9504 177.373H95.1553V179.779H91.9504V177.373Z" fill="#F2F2F2"/>
<path d="M91.9504 188.871H95.1553V191.278H91.9504V188.871Z" fill="#F2F2F2"/>
<path d="M96.7577 174.431H99.9626V194.219H96.7577V174.431Z" fill="#FE6728"/>
<path d="M96.7577 177.373H99.9626V179.779H96.7577V177.373Z" fill="#F2F2F2"/>
<path d="M96.7577 188.871H99.9626V191.278H96.7577V188.871Z" fill="#F2F2F2"/>
<path d="M103.051 174.501L110.022 193.017L107.023 194.149L100.052 175.633L103.051 174.501Z" fill="#FE6728"/>
<path d="M104.087 177.254L104.935 179.506L101.936 180.637L101.088 178.386L104.087 177.254Z" fill="#F2F2F2"/>
<path d="M108.138 188.013L108.986 190.265L105.987 191.397L105.139 189.145L108.138 188.013Z" fill="#F2F2F2"/>
<path d="M79.3981 194.219H170.737V196.091H79.3981V194.219Z" fill="#F2F2F2"/>
<path d="M114.117 174.431H130.943V194.219H114.117V174.431Z" fill="#FE6728"/>
<path d="M118.257 178.71H126.803V182.453H118.257V178.71Z" fill="#F2F2F2"/>
<path d="M124.266 142.611H125.869V159.724H124.266V142.611Z" fill="#F2F2F2"/>
<path d="M125.067 162.398C123.592 162.398 122.397 161.201 122.397 159.724C122.397 158.247 123.592 157.05 125.067 157.05C126.542 157.05 127.738 158.247 127.738 159.724C127.738 161.201 126.542 162.398 125.067 162.398Z" fill="#F2F2F2"/>
<path opacity="0.9" d="M57.9709 78.1665H244.654L241.335 71.2141H59.9338L57.9709 78.1665Z" fill="#FF7F4D"/>
<path opacity="0.9" d="M53.4413 94.2106H252.317L248.997 87.2582H55.4041L53.4413 94.2106Z" fill="#FF7F4D"/>
<path d="M33.8918 54.0136C33.8918 54.0136 36.5733 60.9175 36.0132 67.7482C35.9108 68.9712 35.4994 70.148 34.8179 71.1681L67.6698 86.7839C67.6698 86.7839 82.5136 88.3226 78.8091 94.8135C75.1046 101.304 61.6757 91.5681 61.6757 91.5681C61.6757 91.5681 26.4828 86.4681 23.7044 81.3681C20.926 76.2681 19.0737 54.9408 19.0737 54.9408L33.8918 54.0136Z" fill="#FFB9B9"/>
<path d="M32.5026 35.0045H25.5567C25.5567 35.0045 20.463 35.9318 19.0738 45.2045C17.6846 54.4772 16.2954 56.7954 17.6846 56.7954C19.0737 56.7954 35.7441 56.3318 35.7441 55.8681C35.7441 55.4045 32.5026 35.0045 32.5026 35.0045Z" fill="#D3D8DD"/>
<path d="M264.371 173.507C244.693 173.507 228.741 157.536 228.741 137.834C228.741 118.132 244.693 102.16 264.371 102.16C284.048 102.16 300 118.132 300 137.834C300 157.536 284.048 173.507 264.371 173.507Z" fill="#FF7F4D"/>
<path fill-rule="evenodd" clip-rule="evenodd" d="M228.741 137.834C228.741 157.536 244.693 173.507 264.371 173.507C284.048 173.507 300 157.536 300 137.834C300 118.132 284.048 102.16 264.371 102.16C244.693 102.16 228.741 118.132 228.741 137.834ZM233.729 137.834C233.729 154.777 247.448 168.513 264.371 168.513C281.293 168.513 295.012 154.777 295.012 137.834C295.012 120.89 281.293 107.155 264.371 107.155C247.448 107.155 233.729 120.89 233.729 137.834Z" fill="#FE6728"/>
<path d="M267.749 144.732L258.655 153.826C257.264 155.216 255.379 155.997 253.413 155.997C251.447 155.997 249.561 155.216 248.171 153.826C248.048 153.703 247.93 153.577 247.818 153.447C247.632 153.235 247.46 153.013 247.301 152.782C246.718 151.938 246.319 150.981 246.13 149.972C246.088 149.753 246.056 149.531 246.035 149.307C246.012 149.068 246 148.827 246 148.584C245.999 147.904 246.092 147.227 246.275 146.572C246.338 146.347 246.411 146.125 246.496 145.907C246.869 144.944 247.44 144.071 248.171 143.342L252.138 139.375C252.346 139.167 252.628 139.05 252.922 139.05C253.216 139.05 253.498 139.167 253.706 139.375C253.914 139.583 254.031 139.865 254.031 140.159C254.031 140.453 253.914 140.735 253.706 140.943L249.739 144.91C249.439 145.21 249.177 145.544 248.958 145.907C248.471 146.715 248.215 147.641 248.218 148.584C248.218 148.826 248.234 149.068 248.267 149.307C248.298 149.532 248.344 149.754 248.405 149.972C248.647 150.848 249.114 151.645 249.761 152.284C250.407 152.922 251.21 153.38 252.089 153.611C252.967 153.842 253.891 153.839 254.768 153.602C255.645 153.364 256.445 152.901 257.087 152.258L259.372 149.972L263.438 145.907L266.181 143.164C267.043 142.3 267.574 141.159 267.68 139.943C267.786 138.726 267.462 137.511 266.762 136.51C266.598 136.268 266.535 135.972 266.588 135.684C266.641 135.397 266.805 135.142 267.044 134.975C267.284 134.808 267.58 134.742 267.867 134.792C268.155 134.841 268.412 135.003 268.582 135.24C269.578 136.669 270.04 138.402 269.888 140.138C269.736 141.873 268.979 143.499 267.749 144.732Z" fill="white"/>
<path d="M282 127.41C282 127.465 281.999 127.519 281.998 127.574C281.979 128.542 281.77 129.496 281.382 130.383C281.283 130.61 281.172 130.832 281.049 131.048C280.717 131.636 280.307 132.175 279.829 132.652L275.862 136.619C275.654 136.827 275.372 136.943 275.078 136.943C274.784 136.943 274.503 136.826 274.295 136.618C274.087 136.41 273.97 136.129 273.97 135.835C273.97 135.541 274.086 135.259 274.294 135.051L278.261 131.084C278.273 131.072 278.285 131.06 278.296 131.048C279.211 130.119 279.741 128.878 279.779 127.574C279.782 127.519 279.782 127.465 279.782 127.41C279.782 127.241 279.775 127.074 279.759 126.909C279.643 125.709 279.113 124.588 278.261 123.736C278.182 123.657 278.101 123.581 278.018 123.508C277.07 122.674 275.85 122.215 274.587 122.215C273.324 122.215 272.105 122.674 271.156 123.508C271.073 123.581 270.992 123.657 270.913 123.736L261.819 132.83C260.846 133.805 260.3 135.126 260.3 136.504C260.3 137.881 260.846 139.203 261.819 140.178C262.027 140.386 262.144 140.668 262.144 140.962C262.144 141.256 262.027 141.538 261.819 141.746C261.611 141.954 261.329 142.07 261.035 142.07C260.741 142.07 260.459 141.954 260.251 141.746C258.863 140.354 258.084 138.469 258.084 136.504C258.084 134.538 258.863 132.653 260.251 131.262L269.345 122.168C270.136 121.378 271.096 120.778 272.152 120.411C273.207 120.044 274.332 119.921 275.443 120.049C276.553 120.178 277.62 120.556 278.563 121.155C279.507 121.754 280.303 122.558 280.893 123.508C281.027 123.723 281.15 123.945 281.26 124.174C281.676 125.03 281.921 125.959 281.983 126.909C281.994 127.075 282 127.242 282 127.41Z" fill="white"/>
<path d="M275.717 127.278C275.717 127.378 275.707 127.477 275.687 127.574C275.619 127.908 275.437 128.208 275.173 128.423C274.909 128.639 274.579 128.757 274.238 128.757C273.897 128.757 273.567 128.639 273.303 128.423C273.039 128.208 272.858 127.908 272.789 127.574C272.745 127.354 272.751 127.126 272.806 126.909C272.896 126.56 273.11 126.256 273.408 126.054C273.706 125.851 274.067 125.765 274.425 125.81C274.782 125.855 275.11 126.03 275.348 126.3C275.586 126.57 275.717 126.918 275.717 127.278Z" fill="white"/>
<path d="M253.91 149.686C253.91 149.785 253.9 149.884 253.88 149.981C253.812 150.315 253.63 150.616 253.366 150.831C253.102 151.047 252.772 151.164 252.431 151.164C252.09 151.164 251.76 151.047 251.496 150.831C251.232 150.616 251.05 150.315 250.982 149.981C250.938 149.761 250.944 149.534 250.999 149.316C251.089 148.967 251.303 148.663 251.601 148.461C251.899 148.259 252.26 148.172 252.617 148.218C252.975 148.263 253.303 148.437 253.541 148.708C253.779 148.978 253.91 149.326 253.91 149.686Z" fill="white"/>
</svg>
